# xmcd CD database file
#
# Track frame offsets:
#	150
#	5680
#	11675
#	29345
#	37635
#	48073
#	57513
#	70698
#	84695
#	102325
#	111703
#	122098
#	130120
#	144508
#	154310
#	160320
#	178045
#	193005
#	215320
#	230468
#
# Disc length: 3216 seconds
#
# Revision: 0
# Processed by: cddbd v1.5.1PL0 Copyright (c) Steve Scherf et al.
# Submitted via: CDex 1.60beta1
#
DISCID=130c8e14
DTITLE=Various Artist - CHRISTMAS COUNTRY STYLE
DYEAR=1900
DGENRE=Country
TTITLE0=Chet Atkins and His Gallopin' Guitar - DECK THE HALLS
TTITLE1=Cast of Bonanza - HARK! THE HERALD ANGELS SING
TTITLE2=Lorne Greene - TWAS THE NIGHT BEFORE CHRISTMAS
TTITLE3=Jim Reeves - JINGLE BELLS
TTITLE4=Eddy Arnold - JOLLY OLD SAINT NICK
TTITLE5=Floyd Cramer - UP ON THE HOUSE TOP
TTITLE6=Oak Ridge Boys - GO TELL IT ON THE MOUNTAIN
TTITLE7=John Anderson - WHAT CHILD IS THIS
TTITLE8=The Sounds of Christmas - WE THREE KINGS
TTITLE9=George Beverly Shea - ROYAL DAVID'S CITY
TTITLE10=Jim Reeves - O LITTLE TOWN
TTITLE11=Chet Atkins and His Gallopin' Guitar - THE FIRST NOEL
TTITLE12=Don Williams - O COME, ALL YE FAITHFUL
TTITLE13=Eddy Arnold - IT CAME UPON
TTITLE14=The Anita Kerr Singers - GOD REST YE MERRY
TTITLE15=The Sounds of Christmas - ANGELS WE HAVE HEARD IN HIGH
TTITLE16=The Blackwood Brothers - O HOLY NIGHT
TTITLE17=Lorrie Morgan - AVE MARIA
TTITLE18=Hank Snow, The Singing Ranger and His Rainbow Ranch Boys - SILENT NIGHT
TTITLE19=Dottie West - THE LORD'PRAYER
EXTD=
EXTT0=
EXTT1=
EXTT2=
EXTT3=
EXTT4=
EXTT5=
EXTT6=
EXTT7=
EXTT8=
EXTT9=
EXTT10=
EXTT11=
EXTT12=
EXTT13=
EXTT14=
EXTT15=
EXTT16=
EXTT17=
EXTT18=
EXTT19=
PLAYORDER=
